<?xml version="1.0" standalone="no"?>
<!DOCTYPE svg PUBLIC "-//W3C//DTD SVG 20010904//EN"
 "http://www.w3.org/TR/2001/REC-SVG-20010904/DTD/svg10.dtd">
<svg version="1.0" xmlns="http://www.w3.org/2000/svg"
 width="70.000000pt" height="70.000000pt" viewBox="0 0 70.000000 70.000000"
 preserveAspectRatio="xMidYMid meet">
<metadata>
Created by potrace 1.11, written by Peter Selinger 2001-2013
</metadata>
<g transform="translate(0.000000,70.000000) scale(0.100000,-0.100000)"
fill="#000000" stroke="none">
<path d="M322 578 c-112 -19 -172 -102 -172 -239 0 -141 72 -226 198 -234 94
-6 171 40 199 120 6 18 9 36 6 39 -4 3 -30 6 -58 6 -46 0 -53 -3 -63 -25 -20
-44 -92 -56 -126 -22 -39 38 -44 178 -9 225 37 49 115 39 135 -19 9 -27 13
-29 63 -29 62 0 69 9 49 65 -27 82 -123 131 -222 113z"/>
</g>
</svg>
