<?xml version="1.0" encoding="UTF-8"?>
<svg width="141px" height="39px" viewBox="0 0 141 39" version="1.1" xmlns="http://www.w3.org/2000/svg" xmlns:xlink="http://www.w3.org/1999/xlink">
    <!-- Generator: sketchtool 56.2 (101010) - https://sketch.com -->
    <title>AB9E32C5-9996-4F9B-A0E6-4B24129711CA</title>
    <desc>Created with sketchtool.</desc>
    <defs>
        <path d="M10.7910196,17.4116889 C14.3433262,17.4116889 16.9203246,18.6274163 18.4036831,20.6274403 L14.4606464,24.391793 C14.1484668,23.8428531 13.0163946,22.2742599 10.7910196,22.2742599 C8.25346512,22.2742599 6.61367968,23.8428531 6.61367968,28.6661416 C6.61367968,33.3715825 7.98005517,35.5680193 10.7519129,35.5680193 C12.7038779,35.5680193 13.9532703,34.3912357 14.4997531,33.4112037 L18.2472562,36.9009171 C16.9982009,38.5873579 14.8901461,40.4302517 10.2054301,40.4302517 C4.23221496,40.4302517 0.601694915,37.1366124 0.601694915,29.136855 C0.601694915,21.3331718 4.81814158,17.4116889 10.7910196,17.4116889 Z M36.9867274,24.7840431 L36.9867274,33.6463236 C36.9867274,34.9013336 37.4553339,35.4502735 38.5095299,35.4502735 L39.133889,35.4502735 L39.133889,39.528548 C38.1970132,40.1167705 37.1819239,40.2735621 36.2059414,40.2735621 C34.0978866,40.2735621 32.8876009,39.2539088 32.223798,37.8813898 L32.0680453,37.8813898 C31.2481526,38.9796082 29.6087042,40.3517886 26.4464535,40.3517886 C22.1517933,40.3517886 19.9267555,37.411015 19.9267555,34.2345461 C19.9267555,29.1369569 24.4944885,26.7837285 31.4433491,27.1369329 L31.4433491,25.4115481 C31.4433491,22.9408107 30.0769736,22.1957966 28.2810983,22.1957966 C26.1730435,22.1957966 25.0409712,23.4115241 24.4944885,24.705478 L20.3171485,21.6075742 C21.1761479,20.3918468 23.3620791,17.4507345 28.2423287,17.4507345 C33.8639205,17.4507345 36.9867274,19.411476 36.9867274,24.7840431 Z M31.443349,31.1366417 C27.5785257,30.8620024 25.6653303,31.7644853 25.6653303,33.6856056 C25.6653303,34.940277 26.5243298,35.8424212 28.0471322,35.8424212 C29.491384,35.8424212 30.7795461,35.1756337 31.443349,34.273828 L31.443349,31.1366417 Z M55.3164866,23.4114903 C54.5357006,23.2546988 53.5597181,23.2154162 52.7789322,23.2154162 C50.9439503,23.2154162 48.914109,23.9211477 47.625947,24.9800835 L47.625947,39.9988892 L41.769715,39.9988892 L41.769715,17.8431877 L46.3765546,17.8431877 L47.5865031,21.0978831 L47.74293,21.0978831 C48.640699,18.9410675 50.5535573,17.3724743 53.442398,17.3724743 C54.0670942,17.3724743 54.8087734,17.4507008 55.3164866,17.5685485 L55.3164866,23.4114903 Z M69.7691189,10.2747253 L75.624677,10.2747253 L75.624677,39.9990923 L71.0181743,39.9990923 L70.0812985,38.1951424 L69.9252087,38.1951424 C69.3005124,38.8226474 67.5046371,40.351958 64.5379199,40.351958 C59.8919734,40.351958 56.4957564,37.2933367 56.4957564,30.0782144 C56.4957564,20.7448817 61.4926522,17.7252043 66.1385987,17.7252043 C68.2072097,17.7252043 69.0662092,17.9998436 69.7691189,18.1959177 L69.7691189,10.2747253 Z M69.9252098,33.8032853 L69.9252098,23.2938459 C69.378727,22.8624151 68.090565,22.5095493 66.9969252,22.5095493 C64.577028,22.5095493 62.4686361,23.5684852 62.4686361,29.568219 C62.4686361,33.8815118 64.0305452,35.6854618 66.2943526,35.6854618 C67.9341381,35.6854618 69.1053171,34.9401091 69.9252098,33.8032853 Z M85.7917152,10.2747253 L85.7917152,33.018988 C85.7917152,34.6658077 86.5330573,35.2147476 87.6260229,35.2147476 C88.0555226,35.2147476 88.2510562,35.1758036 88.4459156,35.1365211 L88.4459156,39.8030181 C87.7433431,40.0773187 86.9234503,40.351958 85.6349511,40.351958 C82.0438749,40.351958 79.8967134,38.2344249 79.8967134,34.5482986 L79.8967134,10.2747253 L85.7917152,10.2747253 Z M107.563952,24.7840431 L107.563952,33.6463236 C107.563952,34.9013336 108.032222,35.4502735 109.086417,35.4502735 L109.711114,35.4502735 L109.711114,39.528548 C108.774238,40.1167705 107.758812,40.2735621 106.783166,40.2735621 C104.674774,40.2735621 103.464488,39.2539088 102.80136,37.8813898 L102.644933,37.8813898 C101.82504,38.9796082 100.185592,40.3517886 97.0236781,40.3517886 C92.7290178,40.3517886 90.5036428,37.411015 90.5036428,34.2345461 C90.5036428,29.1369569 95.0713759,26.7837285 102.020574,27.1369329 L102.020574,25.4115481 C102.020574,22.9408107 100.654198,22.1957966 98.8579858,22.1957966 C96.7502681,22.1957966 95.6178587,23.4115241 95.0713759,24.705478 L90.8940359,21.6075742 C91.7533724,20.3918468 93.9393036,17.4507345 98.8192162,17.4507345 C104.441145,17.4507345 107.563952,19.411476 107.563952,24.7840431 Z M102.020569,31.1366417 C98.1554088,30.8620024 96.2425505,31.7644853 96.2425505,33.6856056 C96.2425505,34.940277 97.1012128,35.8424212 98.6243523,35.8424212 C100.068267,35.8424212 101.356766,35.1756337 102.020569,34.273828 L102.020569,31.1366417 Z M111.351501,42.8226277 C111.936753,43.1362109 112.756646,43.3715676 113.732966,43.3715676 C115.840683,43.3715676 117.090413,42.1558402 117.285609,39.9207981 L109.00948,17.8429845 L115.607054,17.8429845 L118.066395,25.3723672 C118.886288,27.8820486 119.744613,31.2149705 120.018023,33.0971468 L120.174113,33.0971468 C120.486967,31.0974614 120.994006,28.352762 121.814236,25.3723672 L123.883184,17.8429845 L129.973045,17.8429845 L122.555578,41.0969043 C121.306522,44.9791047 119.120591,48.3516478 113.966932,48.3516478 C112.405697,48.3516478 110.922338,47.9594995 110.375518,47.6848602 L111.351501,42.8226277 Z M140.796614,22.2693837 C140.796614,24.4576932 139.29977,26.6578552 136.318219,26.6578552 C133.312395,26.6578552 131.839825,24.3598255 131.839825,22.2693837 C131.839825,20.1914717 133.324532,17.8931033 136.318219,17.8931033 C139.29977,17.8931033 140.796614,20.0814129 140.796614,22.2693837 Z M136.318214,19.0668393 C133.835611,19.0668393 133.044711,20.9859278 133.044711,22.2693838 C133.044711,23.5653696 133.835611,25.5088404 136.318214,25.5088404 C138.776543,25.5088404 139.482487,23.5284575 139.482487,22.2693838 C139.482487,20.9859278 138.812953,19.0668393 136.318214,19.0668393 Z M137.109454,22.697428 L138.253326,24.5677519 L137.121591,24.5677519 L136.050539,22.8074869 L135.758587,22.8074869 L135.758587,24.5677519 L134.736418,24.5677519 L134.736418,19.8734861 L136.57376,19.8734861 C137.510973,19.8734861 138.034194,20.4969274 138.034194,21.2426187 C138.034194,22.0126924 137.632676,22.575178 137.109454,22.697428 Z M136.269672,21.8538687 C136.586234,21.8538687 136.963479,21.8538687 136.963479,21.316104 C136.963479,20.9124419 136.646917,20.839295 136.318218,20.839295 L135.624748,20.839295 L135.624748,21.8538687 L136.269672,21.8538687 Z" id="path-1"></path>
    </defs>
    <g id="Page-1" stroke="none" stroke-width="1" fill="none" fill-rule="evenodd">
        <g id="The-Challange" transform="translate(-139.000000, -111.000000)">
            <g id="Logo/Cardlay-Copy" transform="translate(139.000000, 101.000000)">
                <mask id="mask-2" fill="white">
                    <use xlink:href="#path-1"></use>
                </mask>
                <use id="Combined-Shape" fill="#000000" xlink:href="#path-1"></use>
            </g>
        </g>
    </g>
</svg>